<mxfile modified="2024-02-24T10:27:31.399Z" host="app.diagrams.net" agent="Mozilla/5.0 (Macintosh; Intel Mac OS X 10_15_7) AppleWebKit/537.36 (KHTML, like Gecko) Chrome/121.0.0.0 Safari/537.36" etag="ya6TP_DdnnN5sGoOs3r8" version="23.1.4" type="device">
  <diagram id="Ht1M8jgEwFfnCIfOTk4-" name="Page-1">
    <mxGraphModel dx="794" dy="1121" grid="1" gridSize="10" guides="1" tooltips="1" connect="1" arrows="1" fold="1" page="1" pageScale="1" pageWidth="1169" pageHeight="827" math="0" shadow="0">
      <root>
        <mxCell id="0" />
        <mxCell id="1" parent="0" />
        <mxCell id="LRjo3YgIXbROJSL4hOYZ-13" value="" style="rounded=1;whiteSpace=wrap;html=1;strokeColor=#FFFFFF;fillColor=#DDDDDD;gradientColor=#EEEEEE;gradientDirection=south;strokeWidth=2;" vertex="1" parent="1">
          <mxGeometry x="300" y="249" width="570" height="330" as="geometry" />
        </mxCell>
        <mxCell id="LRjo3YgIXbROJSL4hOYZ-1" value="&lt;b&gt;Amazon CloudFront&lt;br&gt;&lt;/b&gt;Distribution" style="sketch=0;points=[[0,0,0],[0.25,0,0],[0.5,0,0],[0.75,0,0],[1,0,0],[0,1,0],[0.25,1,0],[0.5,1,0],[0.75,1,0],[1,1,0],[0,0.25,0],[0,0.5,0],[0,0.75,0],[1,0.25,0],[1,0.5,0],[1,0.75,0]];outlineConnect=0;fontColor=#232F3E;fillColor=#8C4FFF;strokeColor=#ffffff;dashed=0;verticalLabelPosition=bottom;verticalAlign=top;align=center;html=1;fontSize=12;fontStyle=0;aspect=fixed;shape=mxgraph.aws4.resourceIcon;resIcon=mxgraph.aws4.cloudfront;" vertex="1" parent="1">
          <mxGeometry x="556" y="444" width="78" height="78" as="geometry" />
        </mxCell>
        <mxCell id="LRjo3YgIXbROJSL4hOYZ-2" value="&lt;b&gt;Amazon Route53&lt;br&gt;&lt;/b&gt;Custom Domain" style="sketch=0;points=[[0,0,0],[0.25,0,0],[0.5,0,0],[0.75,0,0],[1,0,0],[0,1,0],[0.25,1,0],[0.5,1,0],[0.75,1,0],[1,1,0],[0,0.25,0],[0,0.5,0],[0,0.75,0],[1,0.25,0],[1,0.5,0],[1,0.75,0]];outlineConnect=0;fontColor=#232F3E;fillColor=#8C4FFF;strokeColor=#ffffff;dashed=0;verticalLabelPosition=bottom;verticalAlign=top;align=center;html=1;fontSize=12;fontStyle=0;aspect=fixed;shape=mxgraph.aws4.resourceIcon;resIcon=mxgraph.aws4.route_53;" vertex="1" parent="1">
          <mxGeometry x="370" y="444" width="78" height="78" as="geometry" />
        </mxCell>
        <mxCell id="LRjo3YgIXbROJSL4hOYZ-3" value="&lt;b&gt;CloudFront Functions&lt;/b&gt;&lt;br&gt;Redirect Function" style="sketch=0;outlineConnect=0;fontColor=#232F3E;gradientColor=none;fillColor=#8C4FFF;strokeColor=none;dashed=0;verticalLabelPosition=top;verticalAlign=bottom;align=center;html=1;fontSize=12;fontStyle=0;aspect=fixed;pointerEvents=1;shape=mxgraph.aws4.cloudfront_functions;labelPosition=center;" vertex="1" parent="1">
          <mxGeometry x="570" y="319" width="50" height="50" as="geometry" />
        </mxCell>
        <mxCell id="LRjo3YgIXbROJSL4hOYZ-5" style="edgeStyle=orthogonalEdgeStyle;rounded=0;orthogonalLoop=1;jettySize=auto;html=1;" edge="1" parent="1" source="LRjo3YgIXbROJSL4hOYZ-1" target="LRjo3YgIXbROJSL4hOYZ-3">
          <mxGeometry relative="1" as="geometry" />
        </mxCell>
        <mxCell id="LRjo3YgIXbROJSL4hOYZ-4" style="edgeStyle=orthogonalEdgeStyle;rounded=0;orthogonalLoop=1;jettySize=auto;html=1;entryX=0;entryY=0.5;entryDx=0;entryDy=0;entryPerimeter=0;" edge="1" parent="1" source="LRjo3YgIXbROJSL4hOYZ-2" target="LRjo3YgIXbROJSL4hOYZ-1">
          <mxGeometry relative="1" as="geometry" />
        </mxCell>
        <mxCell id="LRjo3YgIXbROJSL4hOYZ-6" value="&lt;b&gt;Amazon S3&lt;br&gt;&lt;/b&gt;Stub Origin Bucket" style="sketch=0;points=[[0,0,0],[0.25,0,0],[0.5,0,0],[0.75,0,0],[1,0,0],[0,1,0],[0.25,1,0],[0.5,1,0],[0.75,1,0],[1,1,0],[0,0.25,0],[0,0.5,0],[0,0.75,0],[1,0.25,0],[1,0.5,0],[1,0.75,0]];outlineConnect=0;fontColor=#232F3E;fillColor=#7AA116;strokeColor=#ffffff;dashed=0;verticalLabelPosition=bottom;verticalAlign=top;align=center;html=1;fontSize=12;fontStyle=0;aspect=fixed;shape=mxgraph.aws4.resourceIcon;resIcon=mxgraph.aws4.s3;" vertex="1" parent="1">
          <mxGeometry x="740" y="444" width="78" height="78" as="geometry" />
        </mxCell>
        <mxCell id="LRjo3YgIXbROJSL4hOYZ-7" style="edgeStyle=orthogonalEdgeStyle;rounded=0;orthogonalLoop=1;jettySize=auto;html=1;dashed=1;" edge="1" parent="1" source="LRjo3YgIXbROJSL4hOYZ-1" target="LRjo3YgIXbROJSL4hOYZ-6">
          <mxGeometry relative="1" as="geometry" />
        </mxCell>
        <mxCell id="LRjo3YgIXbROJSL4hOYZ-11" style="edgeStyle=orthogonalEdgeStyle;rounded=0;orthogonalLoop=1;jettySize=auto;html=1;" edge="1" parent="1" source="LRjo3YgIXbROJSL4hOYZ-9" target="LRjo3YgIXbROJSL4hOYZ-2">
          <mxGeometry relative="1" as="geometry" />
        </mxCell>
        <mxCell id="LRjo3YgIXbROJSL4hOYZ-9" value="&lt;b&gt;AWS Certificate Manager&lt;/b&gt;&lt;br&gt;Public Certificate" style="sketch=0;points=[[0,0,0],[0.25,0,0],[0.5,0,0],[0.75,0,0],[1,0,0],[0,1,0],[0.25,1,0],[0.5,1,0],[0.75,1,0],[1,1,0],[0,0.25,0],[0,0.5,0],[0,0.75,0],[1,0.25,0],[1,0.5,0],[1,0.75,0]];outlineConnect=0;fontColor=#232F3E;fillColor=#DD344C;strokeColor=#ffffff;dashed=0;verticalLabelPosition=top;verticalAlign=bottom;align=center;html=1;fontSize=12;fontStyle=0;aspect=fixed;shape=mxgraph.aws4.resourceIcon;resIcon=mxgraph.aws4.certificate_manager_3;labelPosition=center;" vertex="1" parent="1">
          <mxGeometry x="370" y="305" width="78" height="78" as="geometry" />
        </mxCell>
      </root>
    </mxGraphModel>
  </diagram>
</mxfile>
